<?xml version="1.0" encoding="UTF-8" standalone="no"?>
<svg
   xmlns:dc="http://purl.org/dc/elements/1.1/"
   xmlns:cc="http://creativecommons.org/ns#"
   xmlns:rdf="http://www.w3.org/1999/02/22-rdf-syntax-ns#"
   xmlns:svg="http://www.w3.org/2000/svg"
   xmlns="http://www.w3.org/2000/svg"
   xmlns:sodipodi="http://sodipodi.sourceforge.net/DTD/sodipodi-0.dtd"
   xmlns:inkscape="http://www.inkscape.org/namespaces/inkscape"
   id="svg2"
   width="344"
   height="48"
   version="1.1"
   viewBox="0 0 344 48"
   inkscape:version="0.91 r13725"
   sodipodi:docname="logo-red.svg">
  <sodipodi:namedview
     pagecolor="#ffffff"
     bordercolor="#666666"
     borderopacity="1"
     objecttolerance="10"
     gridtolerance="10"
     guidetolerance="10"
     inkscape:pageopacity="0"
     inkscape:pageshadow="2"
     inkscape:window-width="1276"
     inkscape:window-height="677"
     id="namedview17"
     showgrid="false"
     inkscape:zoom="1.4767465"
     inkscape:cx="65.908333"
     inkscape:cy="-56.620012"
     inkscape:window-x="0"
     inkscape:window-y="638"
     inkscape:window-maximized="0"
     inkscape:current-layer="Layer1002" />
  <metadata
     id="metadata826">
    <rdf:RDF>
      <cc:Work
         rdf:about="">
        <dc:format>
                    image/svg+xml
                </dc:format>
        <dc:type
           rdf:resource="http://purl.org/dc/dcmitype/StillImage" />
        <dc:title></dc:title>
      </cc:Work>
    </rdf:RDF>
  </metadata>
  <defs
     id="defs824" />
  <path
     id="path4"
     d="m 0,-793.88977 0,841.889799 595.2756,0 0,-841.889799 -595.2756,0 z"
     style="fill:none;stroke:#1b1918;stroke-width:0.56690001;stroke-linecap:butt;stroke-linejoin:miter;stroke-dasharray:none"
     inkscape:connector-curvature="0" />
  <g
     id="Layer1002"
     transform="translate(-126.52501,-525.03459)">
    <path
       id="path779"
       d="m 194.8654,532.0534 c 13.3557,-7.3219 46.7543,-7.9701 50.6701,12.06 0.8399,4.5 0.9799,9.6999 -0.1001,13.5198 -0.8901,3.5901 -2.7799,6.9602 -5.6701,9.3002 -10.4596,9.8153 -39.685,8.6766 -48.9098,-2.7901 -6.0523,-7.8423 -6.0548,-26.9705 4.0099,-32.0899 z"
       style="fill:#fe0000;fill-rule:evenodd"
       inkscape:connector-curvature="0" />
    <path
       id="path781"
       d="m 253.1054,533.7834 c 3.295,-4.3926 10.1698,-5.83 15.95,-6.26 10.7399,-0.61 21.5699,-0.08 32.1199,2.08 -0.5701,4.9899 -0.54,10.0199 -0.44,15.0398 -7.1101,-1.73 -16.1645,-0.5287 -23.4147,-0.6585 -4.5898,-0.008 -9.4498,2.8899 -10.1999,7.5399 -0.8563,7.708 8.5178,9.5989 14.3147,9.7384 0.36,-4.0601 0.57,-6.8698 0.7101,-10.9298 6.2299,0.1202 12.4599,-0.11 18.6998,-0.0998 -0.0601,6.2898 -0.0399,12.57 -0.03,18.86 -13.2307,4.0748 -40.4056,7.7525 -48.8299,-3.81 -6.19,-9.4502 -5.61,-22.4802 1.12,-31.5 z"
       style="fill:#fe0000;fill-rule:evenodd"
       inkscape:connector-curvature="0" />
    <path
       id="path783"
       d="m 374.5954,528.6334 c 11.3199,-0.4402 22.6698,0.0998 33.9998,-0.2401 0.08,0.3201 0.2401,0.9499 0.3201,1.2699 0.86,5.62 3.1799,10.8502 4.8999,16.24 2.71,8.6102 5.23,17.3001 8.2301,25.8202 -7.5702,0.18 -15.1401,0.01 -22.71,0.0998 -0.43,-1.7799 -0.8399,-3.5598 -1.2299,-5.3399 -4.9,-0.1301 -9.8003,-0.0799 -14.69,-0.11 -0.4601,1.76 -0.9,3.53 -1.3102,5.3201 -7.3499,0.2299 -14.72,-0.0202 -22.07,0.18 3.2219,-9.358 6.4103,-19.1002 9.3201,-28.5401 0.9601,-3.2499 2.7601,-6.4599 2.2399,-9.9499 0.3702,0.0899 1.1101,0.2798 1.48,0.3799 -0.2098,-1.1801 -0.43,-2.34 -0.65,-3.5099 0.22,0.0899 0.65,0.2798 0.86,0.3699 0.33,-0.5 0.98,-1.4898 1.3102,-1.9899 z"
       style="fill:#fe0001;fill-rule:evenodd"
       inkscape:connector-curvature="0" />
    <path
       id="path785"
       d="m 410.9154,528.3233 c 7.7099,0.2599 15.4397,0.22 23.1599,0.0601 1.6801,4.54 3.3001,9.1298 5.7699,13.32 1.6101,-4.4101 3.2301,-8.8101 4.9201,-13.1902 7.88,-0.0598 15.7498,-0.0198 23.6299,-0.1199 -4.6457,8.5717 -16.2298,23.5355 -18.68,31.11 -0.5899,3.8899 -0.2101,7.8601 -0.3,11.7901 -6.8601,0.1199 -13.7298,0.14 -20.5698,-0.51 -0.0202,-3.9302 0.2299,-7.88 -0.2302,-11.7901 -0.9658,-6.1305 -17.136,-22.5329 -17.6998,-30.67 z"
       style="fill:#fe0001;fill-rule:evenodd"
       inkscape:connector-curvature="0" />
    <path
       id="path787"
       d="m 128.4256,528.4134 c 13.1698,0.1899 26.3497,-0.0301 39.5198,0.1199 6.0899,0.5499 13.1902,2.7499 16.0401,8.6899 2.9801,5.4901 1.95,11.98 1.8301,17.96 -0.245,9.195 -11.2601,16.45 -20.81,16.5901 -12.2202,0.17 -24.4503,-0.0899 -36.6602,0.1499 0.14,-14.51 0.03,-29.01 0.0802,-43.5098 z m 21.1898,16.0999 c -0.0827,-1.3822 8.4904,-1.1925 10.9199,0.08 5.8502,3.4401 3.6253,13.2576 -3.5197,13.93 -3.1502,0.1482 -7.365,0.8147 -7.2601,-1.2699 -0.2101,-4.5502 0.0499,-8.2001 -0.1401,-12.7401 z"
       style="fill:#fe0000;fill-rule:evenodd"
       inkscape:connector-curvature="0" />
    <path
       id="path789"
       d="m 306.5353,529.2732 c 12.7701,-1.2498 25.6,-0.6097 38.41,-0.8099 11.1881,-0.0765 20.014,6.846 19.8201,18.62 -0.0366,5.9045 -0.3702,12.7201 -4.9802,16.8701 -4.3398,4.6598 -10.3799,7.9398 -16.8698,7.84 -12.13,0.0899 -24.2702,0.01 -36.4101,0.0298 0.28,-14.1797 0.2001,-28.37 0.03,-42.55 z"
       style="fill:#fe0000;fill-rule:evenodd"
       inkscape:connector-curvature="0" />
    <path
       id="path791"
       d="m 389.6652,540.4632 c 0.3501,-0.3798 1.05,-1.1298 1.4,-1.51 1.12,5.2702 2.9302,10.3502 4.4802,15.5001 -3.1201,0.0601 -6.2402,0.0899 -9.36,0.1401 0.9298,-4.7702 2.4199,-9.4 3.4798,-14.1302 z"
       style="fill-rule:evenodd;fill:#000000;fill-opacity:1"
       inkscape:connector-curvature="0" />
    <path
       id="path793"
       d="m 212.3554,542.5235 c 3.5501,-2.4503 10.19,-1.3201 10.9899,3.5597 0.61,4.39 1.15,9.7801 -2.5798,13.0102 -3.02,1.1398 -7.12,1.25 -9.3401,-1.4902 -2.31,-2.1798 -2.16,-5.5599 -2.0401,-8.46 0.1099,-2.4599 0.7602,-5.22 2.9701,-6.6197 z"
       style="fill-rule:evenodd;fill:#000000;fill-opacity:1;opacity:1"
       inkscape:connector-curvature="0" />
    <path
       id="path797"
       d="m 328.4352,543.5434 c 3.53,0.0198 8.8894,-0.1795 11.0968,1.0658 4.303,2.2473 3.7516,6.4267 1.6733,10.044 -2.7899,4.3401 -8.1899,4.2301 -12.74,3.8903 0.03,-5.0001 0.06,-10.0001 -0.0301,-15.0001 z"
       style="fill-rule:evenodd;fill:#000000;fill-opacity:1"
       inkscape:connector-curvature="0" />
  </g>
</svg>
