<?xml version="1.0" encoding="UTF-8" standalone="no"?>
<svg xmlns="http://www.w3.org/2000/svg" xmlns:cc="http://creativecommons.org/ns#" xmlns:dc="http://purl.org/dc/elements/1.1/" xmlns:rdf="http://www.w3.org/1999/02/22-rdf-syntax-ns#" xmlns:svg="http://www.w3.org/2000/svg" id="svg2" width="595.27557" height="841.88977" version="1.1" viewBox="0 0 595.27557 841.88977">
    <metadata id="metadata826">
        <rdf:RDF>
            <cc:Work rdf:about="">
                <dc:format>
                    image/svg+xml
                </dc:format>
                <dc:type rdf:resource="http://purl.org/dc/dcmitype/StillImage"/>
            </cc:Work>
        </rdf:RDF>
    </metadata>
    <defs id="defs824"/>
    <path id="path4" d="m 0,0 0,841.8898 595.2756,0 L 595.2756,0 0,0 Z" style="fill:none;stroke:#1b1918;stroke-width:0.56690001;stroke-linecap:butt;stroke-linejoin:miter;stroke-dasharray:none"/>
    <g id="Layer1000">
        <path id="path799" d="m 90.9204,619.6397 0,127.2721 404.46,0 0,-127.2721 -404.46,0 z" style="fill:#1b1918;fill-rule:evenodd;stroke:#1b1918;stroke-width:0.56690001;stroke-linecap:butt;stroke-linejoin:miter;stroke-dasharray:none"/>
        <g id="Layer1003">
            <path id="path802" d="m 247.8857,666.6223 c 3.295,-4.3926 10.1698,-5.83 15.95,-6.2601 10.7399,-0.61 21.5699,-0.0799 32.1199,2.0801 -0.5701,4.9898 -0.54,10.0199 -0.44,15.0398 -7.1101,-1.73 -16.1645,-0.5287 -23.4147,-0.6585 -4.5898,-0.008 -9.4498,2.8899 -10.1999,7.5399 -0.8563,7.7079 8.5178,9.5989 14.3147,9.7384 0.36,-4.0601 0.57,-6.8698 0.7101,-10.9298 6.2299,0.1201 12.4599,-0.11 18.6998,-0.0998 -0.0601,6.2898 -0.04,12.5699 -0.03,18.86 -13.2307,4.0748 -40.4056,7.7525 -48.8299,-3.8101 -6.19,-9.4501 -5.61,-22.4801 1.12,-31.4999 z" style="fill:#ffffff;fill-rule:evenodd;stroke:#ffffff;stroke-width:0.21600001;stroke-linecap:butt;stroke-linejoin:miter;stroke-dasharray:none"/>
            <path id="path804" d="m 369.3756,661.4722 c 11.3199,-0.4402 22.6698,0.0998 33.9999,-0.2401 0.0799,0.3201 0.2401,0.9499 0.32,1.2699 0.86,5.62 3.1799,10.8502 4.9,16.24 2.7099,8.6103 5.2299,17.3001 8.2301,25.8202 -7.5702,0.18 -15.1402,0.01 -22.7101,0.0998 -0.43,-1.7799 -0.8399,-3.5597 -1.2299,-5.3399 -4.9,-0.1301 -9.8002,-0.0799 -14.69,-0.11 -0.4601,1.7601 -0.9,3.53 -1.3102,5.3201 -7.3499,0.2299 -14.72,-0.0201 -22.07,0.18 3.2219,-9.358 6.4103,-19.1001 9.3201,-28.5401 0.9601,-3.2499 2.7601,-6.4598 2.2399,-9.9499 0.3702,0.0899 1.11,0.2798 1.48,0.3799 -0.2098,-1.1801 -0.43,-2.34 -0.65,-3.5099 0.22,0.0899 0.65,0.2798 0.86,0.3699 0.33,-0.5 0.98,-1.4898 1.3102,-1.9899 z" style="fill:#ffffff;fill-rule:evenodd;stroke:#ffffff;stroke-width:0.21600001;stroke-linecap:butt;stroke-linejoin:miter;stroke-dasharray:none"/>
            <path id="path806" d="m 405.6957,661.1622 c 7.7099,0.2599 15.4397,0.2199 23.1599,0.0601 1.6801,4.5399 3.3001,9.1298 5.7699,13.32 1.6101,-4.4102 3.2301,-8.8101 4.9201,-13.1902 7.88,-0.0598 15.7498,-0.0198 23.6299,-0.1199 -4.6457,8.5717 -16.2298,23.5355 -18.6801,31.1099 -0.5899,3.89 -0.21,7.8602 -0.2999,11.7902 -6.8601,0.1199 -13.7298,0.14 -20.5698,-0.51 -0.0202,-3.9302 0.2298,-7.88 -0.2302,-11.7901 -0.9658,-6.1305 -17.136,-22.5329 -17.6998,-30.67 z" style="fill:#ffffff;fill-rule:evenodd;stroke:#ffffff;stroke-width:0.21600001;stroke-linecap:butt;stroke-linejoin:miter;stroke-dasharray:none"/>
            <path id="path808" d="m 123.2059,661.2523 c 13.1698,0.1899 26.3497,-0.0301 39.5198,0.1199 6.0899,0.5499 13.1901,2.7498 16.0401,8.6898 2.9801,5.4902 1.9499,11.9801 1.83,17.9601 -0.2449,9.195 -11.26,16.45 -20.8099,16.59 -12.2202,0.1701 -24.4503,-0.0898 -36.6602,0.15 0.14,-14.51 0.03,-29.0101 0.0802,-43.5098 z" style="fill:#ffffff;fill-rule:evenodd;stroke:#ffffff;stroke-width:0.21600001;stroke-linecap:butt;stroke-linejoin:miter;stroke-dasharray:none"/>
            <path id="path810" d="m 301.3155,662.112 c 12.77,-1.2498 25.5999,-0.6097 38.41,-0.8099 11.188,-0.0765 20.014,6.846 19.8201,18.62 -0.0366,5.9045 -0.3702,12.7202 -4.9802,16.8701 -4.3398,4.6599 -10.3799,7.9398 -16.8698,7.8401 -12.13,0.0898 -24.2702,0.01 -36.4102,0.0297 0.2801,-14.1797 0.2001,-28.37 0.0301,-42.55 z" style="fill:#ffffff;fill-rule:evenodd;stroke:#ffffff;stroke-width:0.21600001;stroke-linecap:butt;stroke-linejoin:miter;stroke-dasharray:none"/>
            <path id="path812" d="m 189.6457,664.8922 c 13.3557,-7.3219 46.7544,-7.9702 50.6702,12.06 0.8399,4.5 0.9799,9.6999 -0.1001,13.5199 -0.8901,3.59 -2.7799,6.9602 -5.6701,9.3002 -10.4596,9.8152 -39.6851,8.6765 -48.9099,-2.7902 -6.0522,-7.8423 -6.0548,-26.9705 4.0099,-32.0899 z" style="fill:#ffffff;fill-rule:evenodd;stroke:#ffffff;stroke-width:0.21600001;stroke-linecap:butt;stroke-linejoin:miter;stroke-dasharray:none"/>
            <path id="path814" d="m 207.1358,675.3623 c 3.5501,-2.4503 10.19,-1.3201 10.9899,3.5597 0.61,4.39 1.15,9.7801 -2.5798,13.0102 -3.02,1.1398 -7.1201,1.2501 -9.3402,-1.4902 -2.3099,-2.1798 -2.16,-5.5599 -2.0401,-8.46 0.11,-2.4599 0.7603,-5.22 2.9702,-6.6197 z" style="fill:#1b1918;fill-rule:evenodd;stroke:#ffffff;stroke-width:0.21600001;stroke-linecap:butt;stroke-linejoin:miter;stroke-dasharray:none"/>
            <path id="path816" d="m 144.3957,677.3522 c -0.0828,-1.3822 8.4903,-1.1925 10.9199,0.0799 5.8502,3.4402 3.6253,13.2577 -3.5198,13.93 -3.1501,0.1483 -7.3649,0.8147 -7.2601,-1.2699 -0.21,-4.5502 0.0499,-8.2 -0.14,-12.74 z" style="fill:#1b1918;fill-rule:evenodd;stroke:#ffffff;stroke-width:0.21600001;stroke-linecap:butt;stroke-linejoin:miter;stroke-dasharray:none"/>
            <path id="path818" d="m 323.2154,676.3822 c 3.53,0.0198 8.8894,-0.1795 11.0968,1.0658 4.3029,2.2473 3.7516,6.4267 1.6732,10.044 -2.7898,4.3401 -8.1898,4.2301 -12.74,3.8903 0.0301,-5.0001 0.0601,-10.0001 -0.03,-15.0001 z" style="fill:#1b1918;fill-rule:evenodd;stroke:#ffffff;stroke-width:0.21600001;stroke-linecap:butt;stroke-linejoin:miter;stroke-dasharray:none"/>
            <path id="path820" d="m 384.4454,673.302 c 0.3501,-0.3798 1.05,-1.1298 1.4,-1.51 1.12,5.2702 2.9302,10.3502 4.4802,15.5002 -3.1201,0.0601 -6.2402,0.0898 -9.36,0.14 0.9298,-4.7702 2.4199,-9.4 3.4798,-14.1302 z" style="fill:#1b1918;fill-rule:evenodd;stroke:#ffffff;stroke-width:0.21600001;stroke-linecap:butt;stroke-linejoin:miter;stroke-dasharray:none"/>
        </g>
    </g>
</svg>
